<svg version="1.1" xmlns="http://www.w3.org/2000/svg" width="400" height="244" viewBox="0 0 400 244">
  <g>
    <path d="M60.515 39.062C60.236 39.418 59.476 42.436 58.384 47.532 58.168 48.537 57.839 50.018 57.652 50.823 57.466 51.627 57.137 53.108 56.921 54.113 56.705 55.119 56.376 56.6 56.19 57.404 56.003 58.208 55.674 59.689 55.459 60.695 55.243 61.7 54.914 63.181 54.727 63.985 54.541 64.79 54.212 66.271 53.996 67.276 53.78 68.282 53.451 69.762 53.265 70.567 53.078 71.371 52.749 72.852 52.533 73.857 52.318 74.863 51.989 76.344 51.803 77.148 51.616 77.952 51.228 79.707 50.94 81.048 50.652 82.389 50.363 83.65 50.299 83.851 50.235 84.052 50.026 84.985 49.836 85.923 49.646 86.862 49.171 89.055 48.781 90.798 48.391 92.541 47.732 95.503 47.316 97.38 46.901 99.257 46.336 101.779 46.061 102.986 45.786 104.193 45.47 105.619 45.359 106.155 45.158 107.133 43.962 112.554 43.747 113.467 43.684 113.736 43.354 115.216 43.015 116.758 42.675 118.3 42.24 120.219 42.048 121.024 41.855 121.828 41.365 123.995 40.959 125.838 40.552 127.681 39.89 130.67 39.488 132.48 39.086 134.29 38.428 137.252 38.026 139.062 37.623 140.871 36.965 143.833 36.563 145.643 36.161 147.453 35.503 150.414 35.101 152.224 34.698 154.034 34.043 156.968 33.645 158.745 32.305 164.716 23.612 203.882 23.249 205.588 23.051 206.516 22.671 208.208 22.406 209.347 22.02 211.003 21.985 211.458 22.235 211.616 22.665 211.89 307.649 211.872 308.081 211.598 308.375 211.412 311.591 197.225 323.115 145.277 324.126 140.72 324.46 139.239 324.682 138.33 324.813 137.794 326.786 128.909 329.067 118.586 331.349 108.263 333.539 98.391 333.935 96.648 334.643 93.531 335.296 90.608 336.629 84.583 337.783 79.365 338.843 74.589 339.549 71.42 339.922 69.744 340.581 66.782 341.013 64.839 341.444 62.895 341.951 60.646 342.139 59.842 342.327 59.037 342.63 57.666 342.813 56.795 343.136 55.25 344.323 49.847 344.553 48.873 344.616 48.605 344.948 47.124 345.29 45.582 345.632 44.04 346.084 42.043 346.295 41.144 346.506 40.246 346.613 39.341 346.534 39.133 346.337 38.621 60.917 38.549 60.515 39.062M359.329 39.18C359.203 39.416 358.864 40.707 358.576 42.048 358.288 43.388 357.678 46.13 357.221 48.141 356.149 52.86 355.139 57.388 354.884 58.623 354.774 59.159 354.458 60.585 354.183 61.792 353.908 62.998 353.343 65.521 352.927 67.398 352.512 69.275 351.866 72.182 351.493 73.857 351.12 75.533 350.474 78.44 350.059 80.317 349.643 82.194 349.078 84.717 348.803 85.923 348.528 87.13 348.212 88.556 348.102 89.092 347.9 90.07 346.705 95.491 346.489 96.405 346.387 96.84 346.065 98.286 344.752 104.205 344.544 105.143 344.281 106.24 344.168 106.642 344.055 107.044 343.847 107.977 343.707 108.714 343.566 109.452 343.285 110.768 343.081 111.639 342.878 112.511 342.562 113.937 342.379 114.808 341.902 117.088 340.811 121.998 340.402 123.705 340.21 124.509 339.724 126.648 339.323 128.458 338.385 132.688 337.387 137.203 336.979 139.062 336.055 143.276 333.191 156.191 333.087 156.612 333.022 156.88 332.691 158.361 332.352 159.902 332.013 161.444 331.683 162.925 331.62 163.193 331.557 163.461 331.228 164.942 330.889 166.484 330.55 168.026 330.221 169.506 330.158 169.775 330.095 170.043 329.764 171.523 329.423 173.065 329.082 174.607 328.651 176.527 328.465 177.331 328.279 178.135 327.947 179.616 327.726 180.622 327.505 181.627 327.17 183.108 326.983 183.912 326.795 184.717 326.466 186.197 326.251 187.203 326.037 188.208 325.708 189.689 325.52 190.494 325.333 191.298 325.004 192.779 324.789 193.784 324.574 194.79 324.245 196.271 324.058 197.075 323.87 197.879 323.541 199.36 323.326 200.366 323.112 201.371 322.783 202.852 322.595 203.656 322.408 204.461 322.077 205.941 321.861 206.947 321.645 207.952 321.327 209.378 321.155 210.116 320.729 211.938 320.281 211.822 327.724 211.822 335.068 211.822 334.971 211.842 335.282 210.301 335.37 209.864 335.594 208.848 335.779 208.044 336.275 205.89 337.333 201.111 337.992 198.05 338.309 196.575 338.677 194.93 338.809 194.394 338.942 193.857 339.341 192.102 339.696 190.494 340.051 188.885 340.646 186.197 341.016 184.522 341.387 182.846 342.03 179.939 342.444 178.062 342.858 176.185 343.253 174.43 343.32 174.162 343.388 173.894 344.981 166.709 346.861 158.196 348.74 149.683 350.602 141.292 350.998 139.549 351.941 135.394 352.969 130.776 353.22 129.555 353.331 129.019 353.647 127.593 353.922 126.386 354.197 125.18 354.762 122.657 355.177 120.78 356.406 115.229 357.318 111.143 357.735 109.324 357.949 108.385 358.264 106.959 358.435 106.155 358.824 104.319 360.21 98.104 360.664 96.161 360.852 95.356 361.155 93.985 361.338 93.114 361.661 91.569 362.848 86.166 363.078 85.192 363.141 84.924 363.471 83.443 363.81 81.901 364.15 80.36 364.584 78.44 364.774 77.636 364.965 76.831 365.298 75.35 365.513 74.345 365.729 73.339 366.058 71.859 366.245 71.054 366.431 70.25 366.76 68.769 366.976 67.764 367.192 66.758 367.521 65.277 367.707 64.473 367.894 63.668 368.223 62.188 368.438 61.182 368.654 60.177 368.983 58.696 369.17 57.892 369.356 57.087 369.683 55.606 369.896 54.601 370.11 53.595 370.44 52.115 370.631 51.31 370.822 50.506 371.268 48.531 371.623 46.923 371.978 45.314 372.44 43.23 372.651 42.291 372.862 41.353 373.041 40.201 373.05 39.732L373.065 38.879 366.312 38.814C360.067 38.754 359.541 38.782 359.329 39.18M302.681 47.351C303.081 47.667 303.068 48.978 302.65 50.541 302.466 51.232 302.131 52.675 301.907 53.748 301.682 54.82 301.345 56.356 301.156 57.16 300.968 57.965 300.638 59.445 300.422 60.451 300.206 61.456 299.878 62.937 299.693 63.742 299.508 64.546 299.176 66.027 298.955 67.032 298.169 70.623 297.904 71.807 297.538 73.37 297.334 74.241 296.99 75.777 296.775 76.782 296.559 77.788 296.232 79.269 296.047 80.073 295.862 80.878 295.535 82.358 295.321 83.364 295.106 84.369 294.777 85.85 294.589 86.654 294.402 87.459 294.068 88.94 293.847 89.945 293.626 90.951 293.298 92.431 293.118 93.236 292.938 94.04 292.621 95.466 292.414 96.405 292.207 97.343 291.815 99.098 291.544 100.305 291.273 101.511 290.943 102.992 290.81 103.595 290.678 104.199 290.36 105.625 290.104 106.764 289.848 107.904 289.456 109.714 289.234 110.786 289.012 111.859 288.731 113.065 288.61 113.467 288.489 113.87 288.319 114.637 288.233 115.174 288.147 115.71 287.971 116.494 287.842 116.916 287.713 117.339 287.507 118.216 287.385 118.866 287.158 120.066 286.77 121.84 286.058 124.924 285.842 125.862 285.506 127.398 285.313 128.336 285.12 129.275 284.862 130.427 284.739 130.896 284.617 131.365 284.333 132.626 284.107 133.699 283.625 135.988 283.065 138.434 282.718 139.767 282.582 140.288 282.381 141.221 282.272 141.838 282.163 142.456 281.831 144.004 281.535 145.277 281.238 146.551 280.91 148.032 280.804 148.568 280.699 149.104 280.37 150.585 280.073 151.859 279.776 153.132 279.447 154.613 279.342 155.149 279.236 155.686 278.907 157.166 278.611 158.44 278.314 159.714 277.985 161.194 277.879 161.731 277.774 162.267 277.446 163.748 277.152 165.021 276.857 166.295 276.475 167.995 276.302 168.8 276.13 169.604 275.799 171.085 275.568 172.09 275.153 173.893 274.889 175.076 274.097 178.672 273.876 179.677 273.547 181.158 273.366 181.962 273.185 182.767 272.856 184.247 272.635 185.253 272.414 186.258 272.084 187.739 271.903 188.544 271.063 192.267 270.832 193.298 270.453 195.003 270.23 196.009 269.891 197.544 269.7 198.416 268.809 202.478 268.745 202.663 268.125 202.977 267.488 203.3 36.6 203.457 35.403 203.136 34.665 202.939 34.476 202.044 34.848 200.516 35.269 198.786 35.809 196.322 36.072 194.931 36.194 194.288 36.371 193.521 36.467 193.225 36.562 192.929 36.78 192.029 36.951 191.225 37.397 189.126 38.324 184.922 39.101 181.475 39.282 180.67 39.619 179.135 39.85 178.062 40.08 176.99 40.419 175.454 40.603 174.65 41.191 172.073 41.631 170.065 42.02 168.19 42.229 167.185 42.5 165.978 42.622 165.509 42.744 165.04 43.029 163.778 43.254 162.706 43.48 161.633 43.816 160.098 44.002 159.293 44.561 156.871 45.087 154.513 46.206 149.421 46.427 148.416 46.751 146.99 46.926 146.252 47.101 145.515 47.419 144.116 47.632 143.144 47.845 142.172 48.194 140.582 48.407 139.61 48.62 138.638 48.941 137.185 49.12 136.38 49.3 135.576 49.629 134.095 49.852 133.09 50.074 132.084 50.403 130.603 50.583 129.799 50.762 128.995 51.091 127.514 51.314 126.508 51.537 125.503 51.866 124.022 52.045 123.218 52.394 121.655 52.979 119.018 53.505 116.636 53.682 115.832 53.996 114.461 54.203 113.589 54.409 112.718 54.703 111.402 54.855 110.664 55.008 109.927 55.297 108.611 55.497 107.739 55.96 105.724 56.411 103.716 56.92 101.402 57.142 100.396 57.471 98.915 57.652 98.111 58.361 94.966 58.748 93.181 59 91.895 59.145 91.158 59.362 90.225 59.482 89.823 59.603 89.421 59.883 88.215 60.106 87.142 60.328 86.069 60.72 84.26 60.978 83.12 61.235 81.98 61.615 80.28 61.82 79.342 62.026 78.403 62.348 76.977 62.536 76.173 62.723 75.369 63.052 73.888 63.267 72.882 63.482 71.877 63.804 70.396 63.982 69.592 64.161 68.787 64.49 67.307 64.713 66.301 64.935 65.296 65.264 63.815 65.444 63.01 65.801 61.408 66.304 59.131 66.925 56.307 67.146 55.302 67.472 53.876 67.649 53.138 67.826 52.401 68.169 50.934 68.411 49.878 68.653 48.822 68.982 47.78 69.141 47.562 69.627 46.898 301.843 46.688 302.681 47.351M128.283 74.13C127.982 74.431 127.999 74.592 128.863 79.707 129.191 81.651 129.622 84.229 129.821 85.436 130.02 86.642 130.343 88.589 130.539 89.762 130.735 90.935 131.064 92.91 131.271 94.15 131.477 95.39 131.802 97.337 131.993 98.477 132.184 99.616 132.513 101.59 132.724 102.864 132.935 104.138 133.272 106.167 133.474 107.374 134.351 112.64 134.543 113.801 134.782 115.296 134.921 116.167 135.146 117.483 135.282 118.221 135.418 118.958 135.973 122.249 136.515 125.533 141.44 155.395 144.818 175.121 145.053 175.405 145.339 175.749 169.756 175.941 170.993 175.609 171.303 175.525 172.189 174.26 173.423 172.139 174.491 170.302 177.6 165.027 180.333 160.416 183.065 155.804 185.522 151.636 185.792 151.153 186.062 150.67 188.201 147.038 190.546 143.083 192.892 139.129 195.226 135.18 195.734 134.308 196.242 133.437 198.576 129.488 200.92 125.533 203.265 121.578 205.428 117.904 205.728 117.367 206.028 116.831 206.479 116.101 206.732 115.745 206.984 115.39 207.191 115.039 207.191 114.966 207.191 114.893 209.257 111.345 211.781 107.081 214.306 102.818 218.371 95.95 220.813 91.82 223.256 87.69 225.467 83.961 225.727 83.533 225.987 83.105 226.275 82.595 226.368 82.401 226.461 82.206 227.504 80.418 228.686 78.427 229.868 76.435 230.835 74.649 230.835 74.458 230.835 73.873 230.115 73.842 218.282 73.912L206.825 73.979 205.68 75.686C205.051 76.624 204.53 77.461 204.522 77.546 204.515 77.631 202.041 81.838 199.025 86.896 196.009 91.953 193.541 96.127 193.541 96.17 193.541 96.213 191.659 99.41 189.359 103.274 187.059 107.137 184.406 111.615 183.464 113.224 182.522 114.832 179.666 119.659 177.118 123.949 174.569 128.239 172.335 132.023 172.152 132.358 171.97 132.693 171.622 133.297 171.381 133.699 171.139 134.101 169.774 136.414 168.348 138.839 164.312 145.705 164.383 145.709 163.21 138.574 162.989 137.233 162.648 135.177 162.452 134.004 161.583 128.796 161.364 127.46 161.003 125.168 160.792 123.827 160.502 122.072 160.357 121.268 160.213 120.463 160.004 119.202 159.894 118.464 159.625 116.669 158.258 108.445 157.95 106.764 157.815 106.027 157.591 104.711 157.454 103.839 156.651 98.75 155.703 92.982 153.919 82.328 153.711 81.088 153.386 79.086 153.198 77.879 152.754 75.046 152.609 74.531 152.147 74.162 151.628 73.748 128.696 73.717 128.283 74.13" fill="#f7f6f7" fill-rule="evenodd"/>
  </g>
</svg>